<mxfile host="65bd71144e">
    <diagram id="4yKCaH6ZXspVgBFbATb7" name="Trang-1">
        <mxGraphModel dx="832" dy="568" grid="1" gridSize="10" guides="1" tooltips="1" connect="1" arrows="1" fold="1" page="1" pageScale="1" pageWidth="827" pageHeight="1169" math="0" shadow="0">
            <root>
                <mxCell id="0"/>
                <mxCell id="1" parent="0"/>
                <mxCell id="8rUmnVm_GTw8HUzDTRz_-16" value="&lt;b&gt;Thêm Đối Tác&lt;/b&gt;" style="strokeWidth=1;shadow=0;dashed=0;align=center;html=1;shape=mxgraph.mockup.containers.window;align=left;verticalAlign=top;spacingLeft=8;strokeColor2=#008cff;strokeColor3=#c4c4c4;fontColor=#666666;mainText=;fontSize=17;labelBackgroundColor=none;whiteSpace=wrap;" parent="1" vertex="1">
                    <mxGeometry x="120" y="60" width="550" height="380" as="geometry"/>
                </mxCell>
                <mxCell id="8rUmnVm_GTw8HUzDTRz_-28" value="Họ và tên" style="strokeWidth=1;shadow=0;dashed=0;align=center;html=1;shape=mxgraph.mockup.forms.anchor;align=right;spacingRight=2;fontColor=#666666;" parent="1" vertex="1">
                    <mxGeometry x="140" y="112" width="50" height="18" as="geometry"/>
                </mxCell>
                <mxCell id="8rUmnVm_GTw8HUzDTRz_-29" value="" style="strokeWidth=1;shadow=0;dashed=0;align=center;html=1;shape=mxgraph.mockup.forms.rrect;fillColor=#ffffff;rSize=0;fontColor=#666666;align=left;spacingLeft=3;strokeColor=#999999;" parent="1" vertex="1">
                    <mxGeometry x="210" y="112" width="350" height="18" as="geometry"/>
                </mxCell>
                <mxCell id="8rUmnVm_GTw8HUzDTRz_-30" value="Chức danh" style="strokeWidth=1;shadow=0;dashed=0;align=center;html=1;shape=mxgraph.mockup.forms.anchor;align=right;spacingRight=2;fontColor=#666666;" parent="1" vertex="1">
                    <mxGeometry x="150" y="147" width="50" height="18" as="geometry"/>
                </mxCell>
                <mxCell id="8rUmnVm_GTw8HUzDTRz_-31" value="" style="strokeWidth=1;shadow=0;dashed=0;align=center;html=1;shape=mxgraph.mockup.forms.rrect;fillColor=#ffffff;rSize=0;fontColor=#666666;align=left;spacingLeft=3;strokeColor=#999999;" parent="1" vertex="1">
                    <mxGeometry x="210" y="147" width="350" height="18" as="geometry"/>
                </mxCell>
                <mxCell id="8rUmnVm_GTw8HUzDTRz_-32" value="Email" style="strokeWidth=1;shadow=0;dashed=0;align=center;html=1;shape=mxgraph.mockup.forms.anchor;align=right;spacingRight=2;fontColor=#666666;" parent="1" vertex="1">
                    <mxGeometry x="150" y="182" width="50" height="18" as="geometry"/>
                </mxCell>
                <mxCell id="8rUmnVm_GTw8HUzDTRz_-33" value="abc123@gmail.com" style="strokeWidth=1;shadow=0;dashed=0;align=center;html=1;shape=mxgraph.mockup.forms.rrect;fillColor=#ffffff;rSize=0;fontColor=#666666;align=left;spacingLeft=3;strokeColor=#999999;" parent="1" vertex="1">
                    <mxGeometry x="210" y="182" width="350" height="18" as="geometry"/>
                </mxCell>
                <mxCell id="8rUmnVm_GTw8HUzDTRz_-34" value="Số điện thoại" style="strokeWidth=1;shadow=0;dashed=0;align=center;html=1;shape=mxgraph.mockup.forms.anchor;align=right;spacingRight=2;fontColor=#666666;" parent="1" vertex="1">
                    <mxGeometry x="150" y="220" width="50" height="18" as="geometry"/>
                </mxCell>
                <mxCell id="8rUmnVm_GTw8HUzDTRz_-35" value="" style="strokeWidth=1;shadow=0;dashed=0;align=center;html=1;shape=mxgraph.mockup.forms.rrect;fillColor=#ffffff;rSize=0;fontColor=#666666;align=left;spacingLeft=3;strokeColor=#999999;" parent="1" vertex="1">
                    <mxGeometry x="210" y="220" width="350" height="18" as="geometry"/>
                </mxCell>
                <mxCell id="8rUmnVm_GTw8HUzDTRz_-36" value="Địa chỉ" style="strokeWidth=1;shadow=0;dashed=0;align=center;html=1;shape=mxgraph.mockup.forms.anchor;align=right;spacingRight=2;fontColor=#666666;" parent="1" vertex="1">
                    <mxGeometry x="150" y="260" width="50" height="18" as="geometry"/>
                </mxCell>
                <mxCell id="8rUmnVm_GTw8HUzDTRz_-37" value="" style="strokeWidth=1;shadow=0;dashed=0;align=center;html=1;shape=mxgraph.mockup.forms.rrect;fillColor=#ffffff;rSize=0;fontColor=#666666;align=left;spacingLeft=3;strokeColor=#999999;" parent="1" vertex="1">
                    <mxGeometry x="210" y="260" width="350" height="18" as="geometry"/>
                </mxCell>
                <mxCell id="8rUmnVm_GTw8HUzDTRz_-39" value="Thêm" style="strokeWidth=1;shadow=0;dashed=0;align=center;html=1;shape=mxgraph.mockup.buttons.button;strokeColor=#666666;fontColor=#ffffff;mainText=;buttonStyle=round;fontSize=17;fontStyle=1;fillColor=#008cff;whiteSpace=wrap;" parent="1" vertex="1">
                    <mxGeometry x="560" y="350" width="80" height="40" as="geometry"/>
                </mxCell>
                <mxCell id="UZQkIFNGnBnCwoeYTMW5-1" value="&lt;font face=&quot;Times New Roman&quot; style=&quot;font-size: 18px;&quot;&gt;&lt;b&gt;Cập nhật&lt;/b&gt;&lt;/font&gt;" style="rounded=1;whiteSpace=wrap;html=1;" parent="1" vertex="1">
                    <mxGeometry x="430" y="350" width="80" height="40" as="geometry"/>
                </mxCell>
            </root>
        </mxGraphModel>
    </diagram>
</mxfile>